<svg width="433" height="432" viewBox="0 0 433 432" fill="none" xmlns="http://www.w3.org/2000/svg">
<circle cx="216.462" cy="215.88" r="215.615" fill="white"/>
<path d="M363.618 152.008C360.321 151.683 356.983 152.188 354.018 153.461L276.516 186.507V244.611L354.018 277.657C356.61 278.763 359.489 279.285 362.384 279.175C365.279 279.065 368.093 278.326 370.559 277.029C373.026 275.731 375.063 273.918 376.479 271.76C377.895 269.603 378.642 267.173 378.649 264.7V166.418C378.644 162.862 377.112 159.432 374.341 156.776C371.571 154.121 367.756 152.424 363.618 152.008Z" fill="#CDA382"/>
<path d="M106.262 113.846C78.2604 113.846 55.1953 133.528 55.1953 157.423V273.631C55.1953 297.526 78.2604 317.209 106.262 317.209H242.44C270.441 317.209 293.506 297.526 293.506 273.631V157.423C293.506 133.528 270.441 113.846 242.44 113.846H106.262Z" fill="#CDA382"/>
</svg>
