<svg width="432" height="432" viewBox="0 0 432 432" fill="none" xmlns="http://www.w3.org/2000/svg">
<path fill-rule="evenodd" clip-rule="evenodd" d="M216.091 0.426941C335.175 0.426941 431.706 96.9576 431.706 216.042C431.706 335.126 335.175 431.656 216.091 431.656C97.0073 431.656 0.476563 335.126 0.476563 216.042C0.476563 96.9576 97.0073 0.426941 216.091 0.426941ZM237.653 302.287C237.653 296.569 235.381 291.085 231.337 287.041C227.294 282.998 221.81 280.726 216.091 280.726C210.373 280.726 204.889 282.998 200.845 287.041C196.801 291.085 194.53 296.569 194.53 302.287C194.53 308.006 196.801 313.49 200.845 317.534C204.889 321.577 210.373 323.849 216.091 323.849C221.81 323.849 227.294 321.577 231.337 317.534C235.381 313.49 237.653 308.006 237.653 302.287ZM237.653 216.042C237.653 210.323 235.381 204.839 231.337 200.795C227.294 196.752 221.81 194.48 216.091 194.48C210.373 194.48 204.889 196.752 200.845 200.795C196.801 204.839 194.53 210.323 194.53 216.042C194.53 221.76 196.801 227.244 200.845 231.288C204.889 235.331 210.373 237.603 216.091 237.603C221.81 237.603 227.294 235.331 231.337 231.288C235.381 227.244 237.653 221.76 237.653 216.042ZM237.653 129.796C237.653 124.077 235.381 118.593 231.337 114.549C227.294 110.506 221.81 108.234 216.091 108.234C210.373 108.234 204.889 110.506 200.845 114.549C196.801 118.593 194.53 124.077 194.53 129.796C194.53 135.514 196.801 140.998 200.845 145.042C204.889 149.086 210.373 151.357 216.091 151.357C221.81 151.357 227.294 149.086 231.337 145.042C235.381 140.998 237.653 135.514 237.653 129.796Z" fill="white"/>
</svg>
