<svg width="432" height="432" viewBox="0 0 432 432" fill="none" xmlns="http://www.w3.org/2000/svg">
<circle cx="215.833" cy="215.88" r="215.615" fill="white"/>
<path d="M262.121 111.154C262.121 85.637 241.435 64.9512 215.918 64.9512C190.401 64.9512 169.715 85.637 169.715 111.154V203.561C169.715 229.078 190.401 249.764 215.918 249.764C241.435 249.764 262.121 229.078 262.121 203.561V111.154Z" stroke="#CFA781" stroke-width="32.3422"/>
<path d="M108.043 188.176V203.577C108.043 232.169 119.401 259.59 139.619 279.808C159.837 300.026 187.258 311.384 215.85 311.384M215.85 311.384C244.443 311.384 271.864 300.026 292.082 279.808C312.299 259.59 323.658 232.169 323.658 203.577V188.176M215.85 311.384V372.988M215.85 372.988H169.647M215.85 372.988H262.053" stroke="#CFA781" stroke-width="32.3422" stroke-linecap="round" stroke-linejoin="round"/>
</svg>
